<svg width="1440" height="585" viewBox="0 0 1440 585" fill="none" xmlns="http://www.w3.org/2000/svg">
<path d="M1007.68 292.576C471.619 661.682 184.022 313.726 -84.4457 292.576L-96 862H1525.77C1742.38 608.202 1438.98 381.623 1504.67 105.607C1570.44 -170.765 1178.97 174.636 1007.68 292.576Z" fill="#1F7FD6"/>
<path d="M-78 35C86.1527 674.936 584.452 92.9761 1157.55 264.093C1371.93 328.104 1495.67 349.712 1562.3 353.937C1616.93 312.675 1682.44 361.556 1562.3 353.937C1547.87 364.84 1534.2 382.035 1524.91 408.229C1461.04 588.311 1735.53 696.413 1524.91 862H-52L-78 35Z" fill="url(#paint0_linear_545_541)" fill-opacity="0.69"/>
<path d="M946.831 442.646C425.611 747.378 232.597 17.6989 -28.2964 0L-29.0001 861L1547.1 862.288C1757.79 652.632 1483.55 515.423 1547.57 287.279C1611.67 58.8413 1113.38 345.275 946.831 442.646Z" fill="url(#paint1_linear_545_541)" fill-opacity="0.69"/>
<defs>
<linearGradient id="paint0_linear_545_541" x1="-52.0007" y1="366.435" x2="1387.97" y2="1217.16" gradientUnits="userSpaceOnUse">
<stop stop-color="#6D9295" stop-opacity="0.36"/>
<stop offset="0.322917" stop-color="#0944DD" stop-opacity="0.499213"/>
<stop offset="0.625305" stop-color="#2D4FA7" stop-opacity="0.53"/>
<stop offset="0.859739" stop-color="#17467E"/>
<stop offset="1" stop-color="#0A087B"/>
</linearGradient>
<linearGradient id="paint1_linear_545_541" x1="-28.4873" y1="233.031" x2="1566.1" y2="977.679" gradientUnits="userSpaceOnUse">
<stop stop-color="#CDDDF1"/>
<stop offset="0.286207" stop-color="#004DE1" stop-opacity="0.71"/>
<stop offset="0.625305" stop-color="#C6F1FF" stop-opacity="0.65"/>
<stop offset="0.859739" stop-color="#142D86" stop-opacity="0.5344"/>
<stop offset="1" stop-color="#2E0101"/>
</linearGradient>
</defs>
</svg>
