<svg width="1512" height="863" viewBox="0 0 1512 863" fill="none" xmlns="http://www.w3.org/2000/svg">
<path d="M1035.68 292.576C499.619 661.682 212.022 313.726 -56.4457 292.576L-68 862H1553.77C1770.38 608.202 1466.98 381.623 1532.67 105.607C1598.44 -170.765 1206.97 174.636 1035.68 292.576Z" fill="#E88F8F" fill-opacity="0.83"/>
<path d="M-50 35C114.153 674.936 612.452 92.9761 1185.55 264.093C1399.93 328.104 1523.67 349.712 1590.3 353.937C1644.93 312.675 1710.44 361.556 1590.3 353.937C1575.87 364.84 1562.2 382.035 1552.91 408.229C1489.04 588.311 1763.53 696.413 1552.91 862H-24L-50 35Z" fill="url(#paint0_linear_249_11)" fill-opacity="0.69"/>
<path d="M974.831 442.646C453.611 747.378 260.597 17.6989 -0.296387 0L-1.00011 861L1575.1 862.288C1785.79 652.632 1511.55 515.423 1575.57 287.279C1639.67 58.8413 1141.38 345.275 974.831 442.646Z" fill="url(#paint1_linear_249_11)" fill-opacity="0.69"/>
<defs>
<linearGradient id="paint0_linear_249_11" x1="-24.0007" y1="366.435" x2="1415.97" y2="1217.16" gradientUnits="userSpaceOnUse">
<stop stop-color="#73A07D" stop-opacity="0.36"/>
<stop offset="0.286207" stop-color="#E9E088" stop-opacity="0.51"/>
<stop offset="0.625305" stop-color="#DB7878" stop-opacity="0.53"/>
<stop offset="0.859739" stop-color="#C089E1"/>
<stop offset="1" stop-color="#4E0000"/>
</linearGradient>
<linearGradient id="paint1_linear_249_11" x1="-0.487324" y1="233.031" x2="1594.1" y2="977.679" gradientUnits="userSpaceOnUse">
<stop stop-color="#0F9C2E" stop-opacity="0.69"/>
<stop offset="0.286207" stop-color="#E1CC00" stop-opacity="0.71"/>
<stop offset="0.625305" stop-color="#BD0505" stop-opacity="0.65"/>
<stop offset="0.859739" stop-color="#581C7C" stop-opacity="0.5344"/>
<stop offset="1" stop-color="#2E0101"/>
</linearGradient>
</defs>
</svg>
